<?xml version="1.0" encoding="UTF-8" standalone="no"?>
<!-- Created with Inkscape (http://www.inkscape.org/) -->

<svg
   xmlns:dc="http://purl.org/dc/elements/1.1/"
   xmlns:cc="http://creativecommons.org/ns#"
   xmlns:rdf="http://www.w3.org/1999/02/22-rdf-syntax-ns#"
   xmlns:svg="http://www.w3.org/2000/svg"
   xmlns="http://www.w3.org/2000/svg"
   xmlns:sodipodi="http://sodipodi.sourceforge.net/DTD/sodipodi-0.dtd"
   xmlns:inkscape="http://www.inkscape.org/namespaces/inkscape"
   width="73.445023"
   height="101.286"
   id="svg3143"
   version="1.1"
   inkscape:version="0.48.4 r9939"
   sodipodi:docname="prerequisito.svg">
  <defs
     id="defs3145" />
  <sodipodi:namedview
     id="base"
     pagecolor="#ffffff"
     bordercolor="#666666"
     borderopacity="1.0"
     inkscape:pageopacity="0.0"
     inkscape:pageshadow="2"
     inkscape:zoom="0.57774786"
     inkscape:cx="213.00178"
     inkscape:cy="130.08503"
     inkscape:document-units="px"
     inkscape:current-layer="layer1"
     showgrid="false"
     inkscape:window-width="1301"
     inkscape:window-height="744"
     inkscape:window-x="65"
     inkscape:window-y="24"
     inkscape:window-maximized="1"
     inkscape:snap-page="true"
     inkscape:snap-grids="true"
     inkscape:snap-to-guides="true"
     showborder="true"
     inkscape:showpageshadow="true"
     borderlayer="false"
     fit-margin-top="0"
     fit-margin-left="0"
     fit-margin-right="0"
     fit-margin-bottom="0" />
  <metadata
     id="metadata3148">
    <rdf:RDF>
      <cc:Work
         rdf:about="">
        <dc:format>image/svg+xml</dc:format>
        <dc:type
           rdf:resource="http://purl.org/dc/dcmitype/StillImage" />
        <dc:title></dc:title>
      </cc:Work>
    </rdf:RDF>
  </metadata>
  <g
     inkscape:label="Capa 1"
     inkscape:groupmode="layer"
     id="layer1"
     transform="translate(-183.27748,-184.57633)">
    <g
       id="g121"
       inkscape:export-filename="/home/noel/TEMPLATES AGIL/prerequisito.png"
       inkscape:export-xdpi="90"
       inkscape:export-ydpi="90"
       transform="translate(908.1115,366.89333)"
       style="fill:#000000">
      <g
         id="g123"
         style="fill:#000000">
        <g
           id="g125"
           style="fill:#000000">
          <g
             id="g127"
             style="fill:#000000">
            <path
               clip-rule="evenodd"
               d="m -721.155,-182.317 c 16.684,0 33.365,0 50.051,0 0.66,0.633 1.334,1.255 1.982,1.9 5.5,5.495 10.982,11.01 16.51,16.477 0.867,0.858 1.225,1.757 1.223,2.963 -0.023,24.708 -0.016,49.417 -0.021,74.125 0,0.525 -0.035,1.053 -0.092,1.575 -0.199,1.875 -1.223,3.139 -2.92,3.896 -0.227,0.101 -0.439,0.232 -0.658,0.35 -22.025,0 -44.051,0 -66.075,0 -0.764,-0.479 -1.617,-0.859 -2.273,-1.456 -1.238,-1.127 -1.408,-2.677 -1.406,-4.267 0.006,-29.947 0.004,-59.894 0.008,-89.841 0,-0.493 0.039,-0.987 0.092,-1.477 0.201,-1.875 1.225,-3.139 2.921,-3.896 0.225,-0.101 0.438,-0.232 0.658,-0.349 z m 63.661,95.276 c 0,-23.99 0,-48.93 0,-72.941 -0.422,0 -0.779,0 -1.137,0 -2.967,0 -5.934,-0.987 -8.9,-1.003 -3.133,-0.018 -5.127,-2.017 -5.137,-5.135 -0.01,-3.032 -1.002,-6.065 -1.002,-9.099 0,-0.35 0,-0.7 0,-1.068 -14.776,0 -30.422,0 -45.055,0 0,29.126 0,60.179 0,89.246 19.777,0 41.479,0 61.231,0 z"
               id="path129"
               inkscape:connector-curvature="0"
               style="fill:#000000;fill-rule:evenodd" />
            <path
               clip-rule="evenodd"
               d="m -688.137,-127.144 c -6.488,0 -12.977,0.003 -19.467,-10e-4 -1.561,-0.001 -2.426,-0.584 -2.688,-1.778 -0.262,-1.187 0.373,-2.249 1.559,-2.552 0.377,-0.097 0.777,-0.154 1.166,-0.154 12.943,-0.009 25.889,-0.009 38.833,-0.005 1.77,0 2.793,0.823 2.809,2.216 0.016,1.356 -0.965,2.254 -2.547,2.269 -2.24,0.021 -4.479,0.006 -6.719,0.006 -4.317,-0.001 -8.632,-0.001 -12.946,-0.001 z"
               id="path131"
               inkscape:connector-curvature="0"
               style="fill:#000000;fill-rule:evenodd" />
            <path
               clip-rule="evenodd"
               d="m -688.137,-136.478 c -6.488,0 -12.977,0.003 -19.467,-0.001 -1.561,-10e-4 -2.426,-0.584 -2.688,-1.778 -0.262,-1.187 0.373,-2.249 1.559,-2.552 0.377,-0.097 0.777,-0.154 1.166,-0.154 12.943,-0.009 25.889,-0.009 38.833,-0.005 1.77,0 2.793,0.823 2.809,2.216 0.016,1.356 -0.965,2.254 -2.547,2.269 -2.24,0.021 -4.479,0.006 -6.719,0.006 -4.317,-0.001 -8.632,-0.001 -12.946,-0.001 z"
               id="path133"
               inkscape:connector-curvature="0"
               style="fill:#000000;fill-rule:evenodd" />
            <path
               clip-rule="evenodd"
               d="m -688.125,-112.061 c 6.456,0 12.913,0 19.368,0 0.986,0 1.906,0.148 2.494,1.079 0.748,1.181 0.205,2.808 -1.123,3.223 -0.461,0.144 -0.971,0.186 -1.459,0.186 -12.879,0.01 -25.756,0.01 -38.635,10e-4 -0.455,-10e-4 -0.924,-0.054 -1.361,-0.174 -0.895,-0.246 -1.553,-1.159 -1.557,-2.062 -0.006,-0.901 0.652,-1.829 1.545,-2.068 0.469,-0.126 0.973,-0.177 1.461,-0.177 6.421,-0.011 12.843,-0.008 19.267,-0.008 z"
               id="path135"
               inkscape:connector-curvature="0"
               style="fill:#000000;fill-rule:evenodd" />
            <path
               clip-rule="evenodd"
               d="m -688.018,-121.803 c 6.495,10e-4 12.989,-0.005 19.481,0.005 1.77,0.003 2.74,0.955 2.582,2.476 -0.098,0.945 -0.812,1.72 -1.754,1.87 -0.324,0.051 -0.658,0.061 -0.986,0.061 -12.955,0.004 -25.911,0.005 -38.864,0.001 -1.67,0 -2.494,-0.555 -2.746,-1.804 -0.248,-1.241 0.561,-2.398 1.818,-2.565 0.391,-0.052 0.789,-0.041 1.186,-0.041 6.427,-0.003 12.855,-0.003 19.283,-0.003 z"
               id="path137"
               inkscape:connector-curvature="0"
               style="fill:#000000;fill-rule:evenodd" />
            <path
               clip-rule="evenodd"
               d="m -688.03,-102.232 c 6.495,0.001 12.989,-0.006 19.481,0.005 1.697,0.002 2.654,0.856 2.619,2.267 -0.027,1.072 -0.799,1.951 -1.869,2.092 -0.355,0.047 -0.723,0.04 -1.084,0.04 -12.855,0.003 -25.711,0.003 -38.565,0 -0.363,0 -0.73,0.006 -1.086,-0.046 -1.039,-0.152 -1.838,-1.082 -1.857,-2.124 -0.02,-1.067 0.812,-2.043 1.896,-2.181 0.422,-0.055 0.854,-0.05 1.283,-0.051 6.395,-0.003 12.79,-0.002 19.182,-0.002 z"
               id="path139"
               inkscape:connector-curvature="0"
               style="fill:#000000;fill-rule:evenodd" />
          </g>
        </g>
      </g>
      <path
         d="m -689.999,-165.26 c -1.689,0.026 -3.381,0.006 -5.072,0.017 -0.254,0.002 -0.33,-0.055 -0.33,-0.287 0.012,-1.656 0.008,-3.313 0.006,-4.972 0,-0.655 -0.322,-0.94 -1.057,-0.94 -2.199,-0.001 -4.395,-0.001 -6.594,0 -0.734,0 -1.057,0.287 -1.057,0.94 -0.002,1.658 -0.006,3.315 0.006,4.972 0,0.227 -0.064,0.291 -0.326,0.289 -1.67,-0.01 -3.34,0.015 -5.01,-0.012 -0.67,-0.01 -1.039,0.35 -1.031,0.934 0.012,1.098 0.004,2.197 0.004,3.296 l 0,0 c 0,1.126 -0.002,2.253 0.002,3.379 0.002,0.595 0.318,0.872 0.99,0.872 1.682,-0.001 3.363,0.002 5.041,-0.01 0.26,-0.002 0.33,0.06 0.33,0.289 -0.012,1.657 -0.008,3.313 -0.006,4.971 0,0.655 0.318,0.941 1.057,0.941 2.199,0 4.395,0 6.594,0 0.736,0 1.057,-0.286 1.057,-0.941 0.002,-1.657 0.006,-3.313 -0.006,-4.971 0,-0.223 0.057,-0.295 0.324,-0.293 1.68,0.011 3.359,0.004 5.039,0.004 0.674,0 0.998,-0.277 0.998,-0.867 0.002,-2.251 -0.002,-4.503 0,-6.756 0,-0.483 -0.351,-0.864 -0.959,-0.855 z"
         id="path141"
         inkscape:connector-curvature="0"
         style="fill:#000000" />
    </g>
  </g>
</svg>
