<?xml version="1.0" encoding="UTF-8" standalone="no"?>
<!-- Generator: Adobe Illustrator 16.0.0, SVG Export Plug-In . SVG Version: 6.00 Build 0)  -->

<svg
   xmlns:dc="http://purl.org/dc/elements/1.1/"
   xmlns:cc="http://creativecommons.org/ns#"
   xmlns:rdf="http://www.w3.org/1999/02/22-rdf-syntax-ns#"
   xmlns:svg="http://www.w3.org/2000/svg"
   xmlns="http://www.w3.org/2000/svg"
   xmlns:sodipodi="http://sodipodi.sourceforge.net/DTD/sodipodi-0.dtd"
   xmlns:inkscape="http://www.inkscape.org/namespaces/inkscape"
   version="1.1"
   id="Capa_1"
   x="0px"
   y="0px"
   width="109.99451"
   height="109.976"
   viewBox="0 0 109.9945 109.976"
   enable-background="new 0 0 100.869 100"
   xml:space="preserve"
   inkscape:version="0.48.4 r9939"
   sodipodi:docname="vacuna.svg"><metadata
     id="metadata147"><rdf:RDF><cc:Work
         rdf:about=""><dc:format>image/svg+xml</dc:format><dc:type
           rdf:resource="http://purl.org/dc/dcmitype/StillImage" /><dc:title></dc:title></cc:Work></rdf:RDF></metadata><defs
     id="defs145" /><sodipodi:namedview
     pagecolor="#ffffff"
     bordercolor="#666666"
     borderopacity="1"
     objecttolerance="10"
     gridtolerance="10"
     guidetolerance="10"
     inkscape:pageopacity="0"
     inkscape:pageshadow="2"
     inkscape:window-width="1301"
     inkscape:window-height="744"
     id="namedview143"
     showgrid="false"
     inkscape:zoom="2.36"
     inkscape:cx="-33.778599"
     inkscape:cy="28.769374"
     inkscape:window-x="65"
     inkscape:window-y="24"
     inkscape:window-maximized="1"
     inkscape:current-layer="Capa_1"
     fit-margin-top="0"
     fit-margin-left="0"
     fit-margin-right="0"
     fit-margin-bottom="0"
     inkscape:showpageshadow="true" /><g
     id="g3"
     transform="translate(482.02888,183.749)"><g
       id="g5"><g
         id="g7"><g
           id="g9"><g
             id="g11"><g
               id="g13"><path
                 d="m -389.426,111.082 c 0,4.383 -3.557,7.938 -7.939,7.938 h -48.891 c -4.385,0 -7.938,-3.555 -7.938,-7.938 V 38.734 c 0,-4.387 3.553,-7.947 7.938,-7.947 h 48.891 c 4.383,0 7.939,3.56 7.939,7.947 v 72.348 z"
                 id="path15"
                 inkscape:connector-curvature="0"
                 style="fill:#0087b0" /></g></g></g><g
           id="g17"><g
             id="g19"><path
               d="m -411.387,24.579 h -3.08 c -0.656,-3.758 -3.928,-6.619 -7.867,-6.619 -3.949,0 -7.221,2.861 -7.883,6.619 h -2.027 c -4.385,0 -7.938,3.557 -7.938,7.945 v 6.503 h 36.74 v -6.503 c 0.001,-4.389 -3.55,-7.945 -7.945,-7.945 z m -10.427,0.537 c -1.281,0 -2.307,-1.045 -2.307,-2.314 0,-1.281 1.025,-2.322 2.307,-2.322 1.282,0 2.322,1.041 2.322,2.322 0,1.269 -1.041,2.314 -2.322,2.314 z"
               id="path21"
               inkscape:connector-curvature="0"
               style="fill:#ffffff" /><path
               d="m -402.975,39.492 h -37.672 v -6.968 c 0,-4.639 3.771,-8.414 8.402,-8.414 h 1.646 c 0.857,-3.855 4.271,-6.617 8.264,-6.617 3.98,0 7.395,2.762 8.254,6.617 h 2.693 c 4.639,0 8.412,3.775 8.412,8.414 v 6.968 z m -36.744,-0.933 h 35.814 v -6.035 c 0,-4.121 -3.357,-7.477 -7.482,-7.477 h -3.475 l -0.064,-0.391 c -0.633,-3.609 -3.75,-6.23 -7.408,-6.23 -3.668,0 -6.787,2.621 -7.42,6.23 l -0.07,0.391 h -2.42 c -4.117,0 -7.475,3.355 -7.475,7.477 v 6.035 z m 17.905,-12.98 c -1.533,0 -2.779,-1.244 -2.779,-2.777 0,-1.539 1.246,-2.789 2.779,-2.789 1.533,0 2.787,1.25 2.787,2.789 0,1.532 -1.254,2.777 -2.787,2.777 z m 0,-4.629 c -1.014,0 -1.844,0.83 -1.844,1.852 0,1.016 0.83,1.846 1.844,1.846 1.021,0 1.852,-0.83 1.852,-1.846 -0.001,-1.022 -0.831,-1.852 -1.852,-1.852 z"
               id="path23"
               inkscape:connector-curvature="0"
               style="fill:#0087b0" /></g></g><g
           id="g25"><rect
             x="-428.58401"
             y="30.740999"
             width="13.547"
             height="0.926"
             id="rect27"
             style="fill:#0087b0" /></g><g
           id="g29"><rect
             x="-428.58401"
             y="33.438999"
             width="13.547"
             height="0.93599999"
             id="rect31"
             style="fill:#0087b0" /></g></g></g><path
       clip-rule="evenodd"
       d="m -421.535,94.283 c 6.455,0 12.912,0 19.367,0 0.986,0 1.906,0.148 2.494,1.08 0.748,1.18 0.205,2.807 -1.123,3.223 -0.461,0.143 -0.971,0.186 -1.459,0.186 -12.877,0.01 -25.756,0.01 -38.635,0 -0.455,0 -0.924,-0.053 -1.359,-0.174 -0.896,-0.246 -1.555,-1.158 -1.559,-2.061 -0.004,-0.903 0.652,-1.83 1.547,-2.068 0.469,-0.127 0.971,-0.178 1.459,-0.178 6.422,-0.012 12.846,-0.008 19.268,-0.008 z"
       id="path33"
       inkscape:connector-curvature="0"
       style="fill:#ffffff;fill-rule:evenodd" /><path
       clip-rule="evenodd"
       d="m -421.445,84.541 c 6.494,0.002 12.988,-0.004 19.48,0.006 1.77,0.002 2.74,0.955 2.582,2.475 -0.098,0.945 -0.812,1.721 -1.754,1.871 -0.324,0.051 -0.658,0.061 -0.986,0.061 -12.955,0.004 -25.908,0.004 -38.863,0 -1.67,0 -2.494,-0.555 -2.744,-1.803 -0.25,-1.242 0.559,-2.398 1.818,-2.566 0.389,-0.051 0.789,-0.041 1.184,-0.041 6.427,-0.003 12.855,-0.003 19.283,-0.003 z"
       id="path35"
       inkscape:connector-curvature="0"
       style="fill:#ffffff;fill-rule:evenodd" /><path
       clip-rule="evenodd"
       d="m -421.439,104.111 c 6.492,0.002 12.986,-0.006 19.479,0.006 1.697,0.002 2.654,0.855 2.619,2.266 -0.027,1.072 -0.799,1.951 -1.869,2.092 -0.355,0.047 -0.723,0.041 -1.084,0.041 -12.855,0.002 -25.711,0.002 -38.564,0 -0.363,0 -0.73,0.006 -1.086,-0.047 -1.039,-0.152 -1.838,-1.082 -1.855,-2.123 -0.021,-1.068 0.811,-2.043 1.895,-2.182 0.422,-0.055 0.855,-0.049 1.283,-0.051 6.392,-0.002 12.787,-0.002 19.182,-0.002 z"
       id="path37"
       inkscape:connector-curvature="0"
       style="fill:#ffffff;fill-rule:evenodd" /><path
       d="m -411.818,59.532 c -1.689,0.027 -3.381,0.006 -5.072,0.018 -0.254,0.002 -0.33,-0.055 -0.33,-0.287 0.012,-1.657 0.008,-3.316 0.006,-4.974 0,-0.654 -0.322,-0.939 -1.057,-0.939 -2.199,-0.002 -4.396,-0.002 -6.596,0 -0.734,0 -1.057,0.287 -1.057,0.939 0,1.658 -0.006,3.316 0.006,4.974 0.002,0.227 -0.064,0.291 -0.326,0.289 -1.668,-0.01 -3.338,0.014 -5.008,-0.012 -0.67,-0.01 -1.039,0.35 -1.031,0.934 0.012,1.098 0.004,2.197 0.004,3.295 l 0,0 c 0,1.125 -0.002,2.252 0.002,3.379 0.002,0.594 0.318,0.871 0.99,0.871 1.682,0 3.361,0.002 5.041,-0.01 0.258,-0.002 0.33,0.061 0.328,0.289 -0.012,1.656 -0.006,3.312 -0.006,4.971 0,0.654 0.32,0.941 1.057,0.941 2.199,0 4.396,0 6.596,0 0.736,0 1.057,-0.287 1.057,-0.941 0.002,-1.658 0.006,-3.314 -0.006,-4.971 0,-0.223 0.057,-0.295 0.324,-0.293 1.68,0.012 3.359,0.004 5.039,0.004 0.674,0 0.998,-0.277 0.998,-0.867 0.002,-2.25 -0.002,-4.502 0,-6.754 0,-0.482 -0.352,-0.864 -0.959,-0.856 z"
       id="path39"
       inkscape:connector-curvature="0"
       style="fill:#ffffff" /></g><g
     id="g41"
     transform="translate(482.02888,183.749)"><path
       style="fill:#000000;fill-rule:evenodd"
       d="M 55.25 0 C 25.078001 -0.00099999998 0.33899999 24.351251 0 53.78125 C -0.35999999 85.032249 24.361501 109.50375 54.0625 109.96875 C 85.154499 110.45475 109.865 85.569749 110 55.71875 C 110.143 24.613751 85.841999 0.002 55.25 0 z M 73.40625 18.59375 C 74.273213 18.656221 75.11375 19.36375 75.84375 20.09375 C 79.96475 24.21075 84.0705 28.3155 88.1875 32.4375 C 89.3735 33.6245 90.30075 35.00275 88.84375 36.46875 C 87.35375 37.96675 85.99225 36.99375 84.90625 35.71875 C 83.95125 34.59875 83.2205 34.58875 82.1875 35.71875 C 80.3635 37.71275 78.47775 39.6355 76.46875 41.4375 C 75.14675 42.6235 75.49675 43.353 76.59375 44.375 C 78.57275 46.216 80.45775 48.15675 82.34375 50.09375 C 83.03275 50.79975 83.383 51.63925 82.875 52.65625 C 82.453 53.49825 81.805 53.879 80.875 53.875 C 79.049 53.869 78.16975 52.382 77.21875 51.25 C 75.74975 49.501 74.84025 49.4565 73.15625 51.1875 C 65.39225 59.1655 57.46875 67.008 49.59375 74.875 C 45.31675 79.15 42.61725 79.29925 38.15625 75.28125 C 36.80825 74.06725 36.131 74.49125 35.125 75.53125 C 32.375 78.37225 29.557 81.1515 26.75 83.9375 C 25.865 84.8155 24.83175 86.031 23.59375 84.875 C 22.17175 83.547 23.4805 82.48925 24.4375 81.53125 C 27.2325 78.73525 29.99875 75.89725 32.84375 73.15625 C 33.89475 72.14725 34.2875 71.52975 33.0625 70.21875 C 28.9575 65.82175 29.09675 63.03925 33.34375 58.78125 C 41.20475 50.90025 49.01775 42.9775 56.96875 35.1875 C 58.55875 33.6285 58.9215 32.7025 57.0625 31.0625 C 55.6265 29.7935 52.69925 28.28625 55.15625 25.90625 C 57.46825 23.66625 58.705 26.71625 60.125 27.90625 C 61.951 29.43625 63.5485 32.42575 65.3125 32.46875 C 67.0015 32.50975 68.779 29.60175 70.5 27.96875 C 71.18 27.32575 71.771 26.578 72.5 26 C 73.695 25.054 73.647 24.2575 72.5 23.3125 C 71.146 22.1985 70.4265 20.6985 71.8125 19.3125 C 72.359625 18.766125 72.886072 18.556268 73.40625 18.59375 z M 46.6875 49 C 46.277875 48.965125 45.8645 49.20425 45.3125 49.78125 C 41.7165 53.53525 37.9215 57.134 34.3125 60.875 C 31.9735 63.301 32.0035 66.09425 34.3125 68.65625 C 35.9805 70.50825 37.78675 72.2185 39.59375 73.9375 C 40.66775 74.9575 41.936 75.65975 43.5 75.59375 C 45.183 75.66975 46.478 74.905 47.625 73.75 C 51.143 70.211 54.63875 66.6645 58.21875 63.1875 C 59.29875 62.1385 59.63475 61.44675 58.34375 60.21875 C 54.80275 56.85275 51.396 53.386 48 49.875 C 47.5025 49.3625 47.097125 49.034875 46.6875 49 z "
       transform="translate(-482.02888,-183.749)"
       id="path43" /></g><g
     id="g49"
     transform="translate(482.02888,183.749)"><path
       clip-rule="evenodd"
       d="m -123.016,-138.619 c -0.014,30.81 -24.522,55.282 -55.353,55.271 -30.819,-0.011 -55.317,-24.513 -55.31,-55.317 0.008,-30.806 24.523,-55.283 55.355,-55.271 30.832,0.011 55.322,24.506 55.308,55.317 z"
       id="path51"
       inkscape:connector-curvature="0"
       style="fill:#95c11f;fill-rule:evenodd" /><path
       clip-rule="evenodd"
       d="m -178.719,-105.108 c -7.67,0 -15.341,0.061 -23.009,-0.015 -9.718,-0.095 -13.673,-6.827 -9.063,-15.415 4.572,-8.521 8.627,-17.402 14.008,-25.384 5.534,-8.21 4.421,-16.991 4.509,-25.819 0.083,-8.392 0.284,-8.656 8.624,-8.661 4.383,-0.003 8.766,0.03 13.147,-0.007 3.647,-0.03 5.897,1.877 5.27,5.355 -3.794,21.005 9.327,36.248 17.741,53.106 1.053,2.11 2.322,4.22 2.828,6.479 1.192,5.33 -3.483,10.191 -9.948,10.32 -8.033,0.16 -16.072,0.039 -24.107,0.041 z"
       id="path53"
       inkscape:connector-curvature="0"
       style="fill:#0087b0;fill-rule:evenodd" /><path
       clip-rule="evenodd"
       d="m -178.719,-113.407 c -6.396,10e-4 -12.796,0.075 -19.191,-0.021 -5.578,-0.085 -6.76,-2.217 -4.226,-7.284 5.495,-10.984 5.761,-11.237 16.976,-6.472 7.257,3.086 14.277,4.417 21.477,0.184 2.417,-1.422 4.246,-0.405 5.648,1.537 1.062,1.473 1.884,3.129 2.711,4.756 2.57,5.061 1.379,7.192 -4.203,7.277 -6.395,0.098 -12.795,0.023 -19.192,0.023 z"
       id="path55"
       inkscape:connector-curvature="0"
       style="fill:#ffffff;fill-rule:evenodd" /><path
       clip-rule="evenodd"
       d="m -179.1,-136.856 c -0.725,2.633 -1.752,5.396 -5.26,5.605 -3.295,0.195 -5.261,-2.055 -5.49,-4.955 -0.258,-3.262 1.749,-5.67 5.178,-5.793 3.044,-0.109 5.13,1.566 5.572,5.143 z"
       id="path57"
       inkscape:connector-curvature="0"
       style="fill:#ffffff;fill-rule:evenodd" /><path
       clip-rule="evenodd"
       d="m -175.529,-134.097 c 1.965,0.385 3.55,1.302 3.615,3.41 0.063,2.052 -1.261,3.461 -3.259,3.614 -2.337,0.179 -3.783,-1.34 -3.842,-3.57 -0.055,-2.113 1.667,-2.987 3.486,-3.454 z"
       id="path59"
       inkscape:connector-curvature="0"
       style="fill:#ffffff;fill-rule:evenodd" /><path
       clip-rule="evenodd"
       d="m -180.805,-150.077 c -0.295,2.114 -1.329,3.49 -3.426,3.629 -2.09,0.138 -3.572,-0.899 -3.629,-3.078 -0.051,-2.032 1.063,-3.461 3.22,-3.607 2.169,-0.148 3.176,1.3 3.835,3.056 z"
       id="path61"
       inkscape:connector-curvature="0"
       style="fill:#ffffff;fill-rule:evenodd" /></g><path
     clip-rule="evenodd"
     d="m -213.18012,310.635 c -30.503,0.002 -55.244,-24.6 -55.248,-54.941 -0.003,-30.474 24.725,-55.032 55.398,-55.019 30.397,0.014 55.034,24.718 55.018,55.171 -0.016,30.168 -24.803,54.785 -55.168,54.789 z"
     id="path63"
     inkscape:connector-curvature="0"
     style="fill:#dadada;fill-rule:evenodd" /><path
     clip-rule="evenodd"
     d="m -212.92312,517.057 c -30.503,0.002 -55.244,-24.6 -55.248,-54.941 -0.002,-30.473 24.725,-55.031 55.398,-55.018 30.397,0.012 55.034,24.719 55.018,55.17 -0.015,30.168 -24.802,54.785 -55.168,54.789 z"
     id="path65"
     inkscape:connector-curvature="0"
     style="fill:#dadada;fill-rule:evenodd" /><path
     clip-rule="evenodd"
     d="m -225.09312,263.319 c 0,5.748 -0.061,10.795 0.035,15.84 0.029,1.611 -0.457,2.084 -2.068,2.064 -6.822,-0.082 -13.646,-0.072 -20.468,-0.004 -1.477,0.016 -1.984,-0.373 -1.968,-1.916 0.076,-7.051 0.007,-14.105 0.048,-21.158 0.02,-3.441 2.813,-6.326 6.239,-6.381 4.981,-0.078 9.965,0.01 14.948,-0.045 2.26,-0.025 3.678,1.449 5.096,2.777 2.629,2.461 5.156,5.037 7.588,7.691 1.025,1.121 1.623,1.211 2.695,0.09 2.547,-2.654 5.209,-5.199 7.85,-7.762 1.766,-1.715 3.914,-1.898 5.284,-0.516 1.373,1.385 1.166,3.488 -0.6,5.27 -3.617,3.65 -7.25,7.281 -10.908,10.887 -2.047,2.018 -4.096,2.057 -6.26,0.113 -2.378,-2.13 -4.692,-4.335 -7.511,-6.95 z"
     id="path67"
     inkscape:connector-curvature="0"
     style="fill:#432918;fill-rule:evenodd" /><path
     clip-rule="evenodd"
     d="m -176.90912,255.663 c 0,7.82 -0.039,15.641 0.031,23.461 0.014,1.555 -0.348,2.111 -2.018,2.104 -12.266,-0.07 -24.536,-0.107 -36.799,0.02 -2.492,0.025 -1.922,-1.416 -2.035,-2.795 -0.135,-1.646 0.186,-2.451 2.191,-2.43 10.195,0.111 20.395,0.002 30.59,0.094 2.018,0.02 2.752,-0.396 2.738,-2.611 -0.068,-11.957 0.031,-23.914 0.109,-35.871 0.008,-1.16 -0.512,-1.447 -1.525,-1.447 -9.047,0.014 -18.094,0.031 -27.141,-0.018 -1.41,-0.008 -1.629,0.637 -1.621,1.82 0.039,5.214 0.023,10.427 0.008,15.64 -0.002,0.752 0.24,1.598 -0.307,2.225 -0.617,0.707 -1.314,2.158 -2.16,1.629 -1.326,-0.834 -2.885,-1.861 -2.883,-3.854 0,-4.598 -0.002,-9.197 -0.004,-13.799 0,-2.607 0.045,-5.214 -0.016,-7.822 -0.029,-1.275 0.432,-1.777 1.73,-1.775 12.189,0.033 24.381,0.033 36.571,0.027 1.789,0 2.65,0.473 2.604,2.633 -0.166,7.587 -0.063,15.181 -0.063,22.769 z"
     id="path69"
     inkscape:connector-curvature="0"
     style="fill:#432918;fill-rule:evenodd" /><path
     clip-rule="evenodd"
     d="m -226.89712,239.567 c -0.004,5.324 -4.146,9.459 -9.428,9.414 -5.105,-0.047 -9.347,-4.238 -9.436,-9.33 -0.089,-5.103 4.278,-9.5 9.465,-9.527 5.282,-0.029 9.405,4.113 9.399,9.443 z"
     id="path71"
     inkscape:connector-curvature="0"
     style="fill:#432918;fill-rule:evenodd" /><g
     id="g73"
     transform="translate(482.02888,183.749)"><g
       id="g75"><path
         clip-rule="evenodd"
         d="m 121.542,-139.717 c -0.396,30.808 -25.207,54.974 -56.035,54.579 -30.816,-0.394 -55.008,-25.198 -54.617,-56 0.391,-30.804 25.209,-54.975 56.038,-54.579 30.827,0.395 55.01,25.193 54.614,56 z"
         id="path77"
         inkscape:connector-curvature="0"
         style="fill:#e30613;fill-rule:evenodd" /></g><g
       id="g79"><g
         id="g81"><path
           clip-rule="evenodd"
           d="m 45.251,-184.52 c 1.105,0.518 2.079,1.152 2.362,2.468 0.297,1.38 -0.133,2.487 -1.219,3.352 -0.938,0.746 -2.317,0.795 -3.434,0.177 -0.206,-0.115 -0.49,-0.245 -0.694,-0.191 -2.008,0.511 -4.019,1.022 -6.008,1.612 -2.482,0.735 -3.693,2.572 -4.088,5.018 -0.407,2.555 -0.385,5.117 -0.018,7.682 0.643,4.486 2.111,8.711 4.159,12.729 0.846,1.658 1.914,3.203 2.898,4.789 0.099,0.158 0.295,0.322 0.472,0.359 1.083,0.219 1.789,0.938 2.482,1.723 1.544,1.744 3.307,3.225 5.394,4.288 4.079,2.083 7.934,1.464 11.527,-1.118 1.393,-1.001 2.575,-2.289 3.901,-3.39 0.56,-0.465 1.242,-0.781 1.863,-1.172 0.284,-0.178 0.637,-0.312 0.822,-0.568 3.881,-5.369 6.509,-11.291 7.434,-17.864 0.312,-2.223 0.245,-4.528 0.101,-6.78 -0.209,-3.231 -2.286,-4.967 -5.245,-5.802 -1.506,-0.424 -3.019,-0.824 -4.537,-1.205 -0.239,-0.062 -0.562,-0.032 -0.777,0.081 -1.725,0.905 -3.469,0.394 -4.414,-1.323 -0.816,-1.477 -0.191,-3.394 1.384,-4.259 0.261,-0.143 0.524,-0.276 0.787,-0.415 0.469,0.006 0.937,0.012 1.403,0.018 0.81,0.378 1.562,0.798 2.056,1.605 0.141,0.23 0.533,0.346 0.833,0.437 1.943,0.587 3.922,1.071 5.836,1.739 3.675,1.278 5.828,3.917 6.502,7.739 0.693,3.927 0.406,7.819 -0.448,11.693 -0.904,4.09 -2.392,7.965 -4.39,11.63 -1.013,1.858 -2.28,3.579 -3.416,5.374 -0.162,0.26 -0.213,0.591 -0.32,0.889 -0.242,0.666 -0.322,1.477 -0.758,1.972 -3.096,3.512 -6.714,6.277 -11.324,7.525 -0.517,0.138 -1.052,0.229 -1.583,0.298 -0.418,0.054 -0.591,0.216 -0.592,0.667 -0.022,4.912 -0.135,9.822 -0.082,14.731 0.053,5.073 2.008,9.409 5.771,12.784 5.336,4.784 11.54,6.132 18.304,3.7 6.47,-2.327 10.319,-7.079 11.638,-13.831 0.224,-1.139 0.3,-2.318 0.325,-3.483 0.081,-3.765 0.089,-7.53 0.173,-11.296 0.014,-0.641 -0.183,-0.883 -0.782,-1.037 -4.377,-1.127 -7.362,-3.857 -8.664,-8.154 -1.31,-4.324 -0.485,-8.352 2.63,-11.725 3.369,-3.652 7.58,-4.813 12.315,-3.49 4.38,1.223 7.217,4.196 8.407,8.602 1.764,6.536 -2.268,13.192 -8.924,14.781 -0.756,0.181 -0.99,0.454 -0.99,1.229 -0.002,3.72 -0.068,7.438 -0.119,11.157 -0.067,4.696 -1.274,9.056 -3.989,12.929 -2.283,3.257 -5.227,5.747 -8.851,7.438 -2.339,1.092 -4.795,1.681 -7.338,1.989 -0.135,0.015 -0.267,0.067 -0.401,0.102 -1.171,-0.014 -2.339,-0.028 -3.509,-0.043 -1.345,-0.282 -2.711,-0.499 -4.036,-0.86 -3.464,-0.944 -6.479,-2.7 -9.104,-5.161 -2.827,-2.649 -4.788,-5.826 -5.972,-9.494 -0.763,-2.361 -1.014,-4.79 -0.975,-7.264 0.067,-4.514 0.106,-9.026 0.18,-13.539 0.008,-0.479 -0.093,-0.713 -0.604,-0.798 -3.467,-0.575 -6.429,-2.221 -9.053,-4.477 -1.27,-1.092 -2.463,-2.294 -3.562,-3.556 -0.437,-0.502 -0.54,-1.303 -0.781,-1.97 -0.131,-0.359 -0.152,-0.786 -0.363,-1.085 -3.491,-4.955 -5.885,-10.398 -7.188,-16.308 -0.983,-4.472 -1.312,-8.966 -0.086,-13.466 0.881,-3.224 2.918,-5.41 6.033,-6.493 2.022,-0.702 4.13,-1.167 6.204,-1.72 0.482,-0.127 0.843,-0.346 1.221,-0.706 0.555,-0.53 1.298,-0.86 1.957,-1.277 0.422,0.004 0.842,0.01 1.264,0.014 z m 47.03,49.737 c 4.354,0.165 8.181,-3.438 8.275,-7.952 0.095,-4.309 -3.138,-8.161 -7.936,-8.264 -4.45,-0.093 -8.068,3.301 -8.257,7.896 -0.179,4.354 3.44,8.15 7.918,8.32 z"
           id="path83"
           inkscape:connector-curvature="0"
           style="fill:#ffffff;fill-rule:evenodd" /><path
           clip-rule="evenodd"
           d="m 92.437,-136.859 c -3.338,-0.014 -6.023,-2.728 -6.019,-6.089 0.004,-3.316 2.735,-6.059 6.112,-6.006 3.521,0.055 6.037,2.834 6.002,6.1 -0.036,3.357 -2.726,6.006 -6.095,5.995 z"
           id="path85"
           inkscape:connector-curvature="0"
           style="fill:#ffffff;fill-rule:evenodd" /></g></g></g><g
     id="g87"
     transform="translate(482.02888,183.749)"><g
       id="g89"><g
         id="g91"><g
           id="g93"><g
             id="g95"><path
               d="m -145.186,32.953 c 4.383,0 7.937,3.556 7.937,7.939 v 48.89 c 0,4.385 -3.554,7.938 -7.937,7.938 h -72.348 c -4.387,0 -7.946,-3.553 -7.946,-7.938 v -48.89 c 0,-4.384 3.56,-7.939 7.946,-7.939 h 72.348 z"
               id="path97"
               inkscape:connector-curvature="0"
               style="fill:#009fe3" /></g></g></g></g><path
       d="m -147.331,49.298 c -1.689,0.026 -3.381,0.006 -5.072,0.017 -0.254,0.002 -0.331,-0.055 -0.331,-0.287 0.012,-1.656 0.008,-3.313 0.007,-4.972 0,-0.655 -0.322,-0.94 -1.057,-0.94 -2.199,-10e-4 -4.396,-10e-4 -6.596,0 -0.734,0 -1.057,0.287 -1.057,0.94 -10e-4,1.658 -0.006,3.315 0.006,4.972 0.001,0.227 -0.064,0.291 -0.326,0.289 -1.669,-0.01 -3.339,0.015 -5.008,-0.012 -0.67,-0.01 -1.04,0.35 -1.032,0.934 0.013,1.098 0.004,2.197 0.004,3.296 h 0.001 c 0,1.126 -0.002,2.253 0.002,3.379 0.001,0.595 0.318,0.872 0.99,0.872 1.681,-0.001 3.361,0.002 5.04,-0.01 0.259,-0.002 0.33,0.06 0.329,0.289 -0.012,1.658 -0.007,3.314 -0.006,4.97 0,0.656 0.319,0.941 1.057,0.941 2.199,0 4.396,0 6.596,0 0.736,0 1.057,-0.285 1.057,-0.941 0.001,-1.656 0.005,-3.312 -0.007,-4.97 0,-0.223 0.058,-0.295 0.324,-0.293 1.68,0.011 3.36,0.004 5.04,0.004 0.674,0 0.998,-0.277 0.998,-0.867 0.001,-2.251 -0.002,-4.503 0,-6.756 0,-0.483 -0.352,-0.864 -0.959,-0.855 z"
       id="path99"
       inkscape:connector-curvature="0"
       style="fill:#ffffff" /><path
       clip-rule="evenodd"
       d="m -180.999,74.974 c 6.494,0.002 12.987,-0.004 19.48,0.006 1.769,0.002 2.739,0.955 2.581,2.475 -0.098,0.945 -0.812,1.721 -1.754,1.871 -0.324,0.051 -0.657,0.061 -0.985,0.061 -12.955,0.004 -25.909,0.004 -38.864,0 -1.669,0 -2.493,-0.555 -2.744,-1.803 -0.249,-1.242 0.56,-2.398 1.818,-2.566 0.39,-0.051 0.789,-0.041 1.185,-0.041 6.428,-0.003 12.855,-0.003 19.283,-0.003 z"
       id="path101"
       inkscape:connector-curvature="0"
       style="fill:#ffffff;fill-rule:evenodd" /></g><g
     id="g103"
     transform="translate(482.02888,183.749)"><path
       d="m 78.606,38.861 c -3.873,0.061 -7.75,0.014 -11.626,0.037 -0.582,0.006 -0.759,-0.123 -0.759,-0.656 0.027,-3.797 0.019,-7.595 0.017,-11.396 0,-1.502 -0.739,-2.155 -2.423,-2.155 -5.04,-0.003 -10.075,-0.003 -15.115,0 -1.685,0 -2.423,0.658 -2.423,2.155 -0.002,3.801 -0.013,7.599 0.014,11.396 0.002,0.52 -0.147,0.666 -0.749,0.662 -3.823,-0.022 -7.651,0.033 -11.477,-0.027 -1.535,-0.021 -2.384,0.802 -2.365,2.141 0.028,2.516 0.008,5.036 0.008,7.554 h 0.003 c 0,2.581 -0.005,5.163 0.005,7.743 0.002,1.365 0.729,2 2.269,2 3.853,-0.003 7.705,0.004 11.552,-0.022 0.593,-0.005 0.757,0.137 0.755,0.661 -0.026,3.8 -0.016,7.595 -0.014,11.394 0,1.502 0.732,2.158 2.423,2.158 5.04,0 10.075,0 15.115,0 1.688,0 2.423,-0.656 2.423,-2.158 0.002,-3.799 0.011,-7.594 -0.017,-11.394 0,-0.509 0.133,-0.676 0.744,-0.671 3.85,0.024 7.701,0.01 11.55,0.01 1.545,0 2.289,-0.636 2.289,-1.987 0.002,-5.16 -0.005,-10.32 0,-15.484 0,-1.107 -0.807,-1.981 -2.199,-1.961 z"
       id="path105"
       inkscape:connector-curvature="0"
       style="fill:#e30613" /><g
       id="g107"><path
         clip-rule="evenodd"
         d="m 10.721,89.408 c 0,0.541 0,1.08 0,1.621 0.496,1.229 1.36,2.086 2.57,2.594 0.535,0 1.07,0 1.605,0 0.851,-0.625 1.795,-1.156 2.536,-1.895 4.381,-4.357 8.716,-8.768 13.066,-13.158 0.22,-0.221 0.45,-0.432 0.622,-0.598 1.501,1.047 2.891,2.104 4.365,3.025 7.881,4.924 16.459,6.641 25.582,5.258 8.029,-1.219 14.964,-4.814 20.728,-10.605 5.57,-5.596 9.117,-12.301 10.525,-20.126 0.253,-1.4 0.425,-2.814 0.634,-4.222 0,-1.784 0,-3.567 0,-5.351 C 92.901,45.721 92.83,45.492 92.796,45.259 92.599,43.873 92.48,42.471 92.203,41.101 90.838,34.285 87.836,28.275 83.202,23.139 77.495,16.818 70.464,12.819 62.114,11.249 c -1.383,-0.26 -2.783,-0.435 -4.175,-0.647 -1.767,0 -3.532,0 -5.3,0 -0.176,0.05 -0.352,0.117 -0.53,0.146 -1.792,0.282 -3.621,0.415 -5.373,0.859 -12.451,3.155 -21.258,10.728 -26.33,22.61 -2.658,6.229 -3.37,12.776 -2.473,19.51 0.562,4.21 1.697,8.243 3.693,11.973 1.354,2.527 2.954,4.918 4.556,7.553 -0.059,0.043 -0.331,0.184 -0.537,0.393 -4.379,4.408 -8.766,8.807 -13.107,13.254 -0.711,0.73 -1.216,1.666 -1.817,2.508 z m 13.73,-40.75 C 24.472,31.505 38.312,17.543 55.282,17.555 72.259,17.567 86.093,31.56 86.07,48.697 86.048,65.796 72.283,79.753 55.286,79.755 38.262,79.757 24.521,65.902 24.451,48.658 z"
         id="path109"
         inkscape:connector-curvature="0"
         style="fill-rule:evenodd" /></g></g><g
     id="g111"
     transform="translate(482.02888,183.749)"><path
       d="m -706.133,297.685 c 0,2.617 -2.121,4.738 -4.738,4.738 h -2.781 c -2.617,0 -4.738,-2.121 -4.738,-4.738 v -54.316 c 0,-2.615 2.121,-4.736 4.738,-4.736 h 2.781 c 2.617,0 4.738,2.121 4.738,4.736 v 54.316 z"
       id="path113"
       inkscape:connector-curvature="0"
       style="fill:#e94e1b" /><path
       d="m -674.66,305.767 c 2.617,0 4.74,2.121 4.74,4.736 v 2.783 c 0,2.615 -2.123,4.736 -4.74,4.736 h -40.665 c -2.617,0 -4.736,-2.121 -4.736,-4.736 v -2.783 c 0,-2.615 2.119,-4.736 4.736,-4.736 h 40.665 z"
       id="path115"
       inkscape:connector-curvature="0"
       style="fill:#0087b0" /><path
       d="m -688.584,297.685 c 0,2.617 -2.121,4.738 -4.738,4.738 h -2.781 c -2.617,0 -4.738,-2.121 -4.738,-4.738 v -42.338 c 0,-2.615 2.121,-4.736 4.738,-4.736 h 2.781 c 2.617,0 4.738,2.121 4.738,4.736 v 42.338 z"
       id="path117"
       inkscape:connector-curvature="0"
       style="fill:#e6332a" /><path
       d="m -671.035,297.685 c 0,2.617 -2.121,4.738 -4.738,4.738 h -2.781 c -2.617,0 -4.739,-2.121 -4.739,-4.738 V 250.89 c 0,-2.617 2.122,-4.736 4.739,-4.736 h 2.781 c 2.617,0 4.738,2.119 4.738,4.736 v 46.795 z"
       id="path119"
       inkscape:connector-curvature="0"
       style="fill:#f9b233" /></g><g
     id="g121"
     inkscape:export-filename="/home/noel/TEMPLATES AGIL/prerequisito.png"
     inkscape:export-xdpi="90"
     inkscape:export-ydpi="90"
     transform="translate(529.48651,167.22358)"><g
       id="g123"><g
         id="g125"><g
           id="g127"><path
             clip-rule="evenodd"
             d="m -721.155,-182.317 c 16.684,0 33.365,0 50.051,0 0.66,0.633 1.334,1.255 1.982,1.9 5.5,5.495 10.982,11.01 16.51,16.477 0.867,0.858 1.225,1.757 1.223,2.963 -0.023,24.708 -0.016,49.417 -0.021,74.125 0,0.525 -0.035,1.053 -0.092,1.575 -0.199,1.875 -1.223,3.139 -2.92,3.896 -0.227,0.101 -0.439,0.232 -0.658,0.35 -22.025,0 -44.051,0 -66.075,0 -0.764,-0.479 -1.617,-0.859 -2.273,-1.456 -1.238,-1.127 -1.408,-2.677 -1.406,-4.267 0.006,-29.947 0.004,-59.894 0.008,-89.841 0,-0.493 0.039,-0.987 0.092,-1.477 0.201,-1.875 1.225,-3.139 2.921,-3.896 0.225,-0.101 0.438,-0.232 0.658,-0.349 z m 63.661,95.276 c 0,-23.99 0,-48.93 0,-72.941 -0.422,0 -0.779,0 -1.137,0 -2.967,0 -5.934,-0.987 -8.9,-1.003 -3.133,-0.018 -5.127,-2.017 -5.137,-5.135 -0.01,-3.032 -1.002,-6.065 -1.002,-9.099 0,-0.35 0,-0.7 0,-1.068 -14.776,0 -30.422,0 -45.055,0 0,29.126 0,60.179 0,89.246 19.777,0 41.479,0 61.231,0 z"
             id="path129"
             inkscape:connector-curvature="0"
             style="fill:#0087b0;fill-rule:evenodd" /><path
             clip-rule="evenodd"
             d="m -688.137,-127.144 c -6.488,0 -12.977,0.003 -19.467,-10e-4 -1.561,-0.001 -2.426,-0.584 -2.688,-1.778 -0.262,-1.187 0.373,-2.249 1.559,-2.552 0.377,-0.097 0.777,-0.154 1.166,-0.154 12.943,-0.009 25.889,-0.009 38.833,-0.005 1.77,0 2.793,0.823 2.809,2.216 0.016,1.356 -0.965,2.254 -2.547,2.269 -2.24,0.021 -4.479,0.006 -6.719,0.006 -4.317,-0.001 -8.632,-0.001 -12.946,-0.001 z"
             id="path131"
             inkscape:connector-curvature="0"
             style="fill:#0087b0;fill-rule:evenodd" /><path
             clip-rule="evenodd"
             d="m -688.137,-136.478 c -6.488,0 -12.977,0.003 -19.467,-0.001 -1.561,-10e-4 -2.426,-0.584 -2.688,-1.778 -0.262,-1.187 0.373,-2.249 1.559,-2.552 0.377,-0.097 0.777,-0.154 1.166,-0.154 12.943,-0.009 25.889,-0.009 38.833,-0.005 1.77,0 2.793,0.823 2.809,2.216 0.016,1.356 -0.965,2.254 -2.547,2.269 -2.24,0.021 -4.479,0.006 -6.719,0.006 -4.317,-0.001 -8.632,-0.001 -12.946,-0.001 z"
             id="path133"
             inkscape:connector-curvature="0"
             style="fill:#0087b0;fill-rule:evenodd" /><path
             clip-rule="evenodd"
             d="m -688.125,-112.061 c 6.456,0 12.913,0 19.368,0 0.986,0 1.906,0.148 2.494,1.079 0.748,1.181 0.205,2.808 -1.123,3.223 -0.461,0.144 -0.971,0.186 -1.459,0.186 -12.879,0.01 -25.756,0.01 -38.635,10e-4 -0.455,-10e-4 -0.924,-0.054 -1.361,-0.174 -0.895,-0.246 -1.553,-1.159 -1.557,-2.062 -0.006,-0.901 0.652,-1.829 1.545,-2.068 0.469,-0.126 0.973,-0.177 1.461,-0.177 6.421,-0.011 12.843,-0.008 19.267,-0.008 z"
             id="path135"
             inkscape:connector-curvature="0"
             style="fill:#0087b0;fill-rule:evenodd" /><path
             clip-rule="evenodd"
             d="m -688.018,-121.803 c 6.495,10e-4 12.989,-0.005 19.481,0.005 1.77,0.003 2.74,0.955 2.582,2.476 -0.098,0.945 -0.812,1.72 -1.754,1.87 -0.324,0.051 -0.658,0.061 -0.986,0.061 -12.955,0.004 -25.911,0.005 -38.864,0.001 -1.67,0 -2.494,-0.555 -2.746,-1.804 -0.248,-1.241 0.561,-2.398 1.818,-2.565 0.391,-0.052 0.789,-0.041 1.186,-0.041 6.427,-0.003 12.855,-0.003 19.283,-0.003 z"
             id="path137"
             inkscape:connector-curvature="0"
             style="fill:#0087b0;fill-rule:evenodd" /><path
             clip-rule="evenodd"
             d="m -688.03,-102.232 c 6.495,0.001 12.989,-0.006 19.481,0.005 1.697,0.002 2.654,0.856 2.619,2.267 -0.027,1.072 -0.799,1.951 -1.869,2.092 -0.355,0.047 -0.723,0.04 -1.084,0.04 -12.855,0.003 -25.711,0.003 -38.565,0 -0.363,0 -0.73,0.006 -1.086,-0.046 -1.039,-0.152 -1.838,-1.082 -1.857,-2.124 -0.02,-1.067 0.812,-2.043 1.896,-2.181 0.422,-0.055 0.854,-0.05 1.283,-0.051 6.395,-0.003 12.79,-0.002 19.182,-0.002 z"
             id="path139"
             inkscape:connector-curvature="0"
             style="fill:#0087b0;fill-rule:evenodd" /></g></g></g><path
       d="m -689.999,-165.26 c -1.689,0.026 -3.381,0.006 -5.072,0.017 -0.254,0.002 -0.33,-0.055 -0.33,-0.287 0.012,-1.656 0.008,-3.313 0.006,-4.972 0,-0.655 -0.322,-0.94 -1.057,-0.94 -2.199,-0.001 -4.395,-0.001 -6.594,0 -0.734,0 -1.057,0.287 -1.057,0.94 -0.002,1.658 -0.006,3.315 0.006,4.972 0,0.227 -0.064,0.291 -0.326,0.289 -1.67,-0.01 -3.34,0.015 -5.01,-0.012 -0.67,-0.01 -1.039,0.35 -1.031,0.934 0.012,1.098 0.004,2.197 0.004,3.296 l 0,0 c 0,1.126 -0.002,2.253 0.002,3.379 0.002,0.595 0.318,0.872 0.99,0.872 1.682,-0.001 3.363,0.002 5.041,-0.01 0.26,-0.002 0.33,0.06 0.33,0.289 -0.012,1.657 -0.008,3.313 -0.006,4.971 0,0.655 0.318,0.941 1.057,0.941 2.199,0 4.395,0 6.594,0 0.736,0 1.057,-0.286 1.057,-0.941 0.002,-1.657 0.006,-3.313 -0.006,-4.971 0,-0.223 0.057,-0.295 0.324,-0.293 1.68,0.011 3.359,0.004 5.039,0.004 0.674,0 0.998,-0.277 0.998,-0.867 0.002,-2.251 -0.002,-4.503 0,-6.756 0,-0.483 -0.351,-0.864 -0.959,-0.855 z"
       id="path141"
       inkscape:connector-curvature="0"
       style="fill:#0087b0" /></g></svg>